<?xml version="1.0" encoding="UTF-8"?>
<svg xmlns="http://www.w3.org/2000/svg" xmlns:xlink="http://www.w3.org/1999/xlink" width="508" height="100" viewBox="0 0 127 25" version="1.1">
<g id="surface1">
<path style=" stroke:none;fill-rule:nonzero;fill:rgb(60%,40%,0%);fill-opacity:1;" d="M 12.273438 24.703125 L 9.429688 19.933594 C 9.371094 19.847656 9.339844 19.746094 9.34375 19.644531 L 9.34375 10.746094 L 8.269531 10.746094 L 8.269531 19.875 C 8.355469 19.96875 10.144531 23.046875 10.144531 23.046875 L 5.703125 23.046875 C 5.703125 23.046875 7.496094 19.96875 7.585938 19.875 L 7.585938 10.746094 L 6.511719 10.746094 L 6.511719 19.621094 C 6.515625 19.726562 6.480469 19.828125 6.421875 19.910156 L 3.578125 24.703125 Z M 12.273438 24.703125 "/>
<path style=" stroke:none;fill-rule:nonzero;fill:rgb(60%,40%,0%);fill-opacity:1;" d="M 11.390625 4.570312 C 11.675781 3.171875 11.144531 1.730469 10.019531 0.859375 C 9.378906 0.378906 8.597656 0.136719 7.800781 0.167969 C 7.054688 0.152344 6.328125 0.398438 5.738281 0.859375 C 3.976562 2.09375 4.441406 4.554688 4.441406 4.554688 Z M 11.390625 4.570312 "/>
<path style=" stroke:none;fill-rule:nonzero;fill:rgb(60%,40%,0%);fill-opacity:1;" d="M 4.652344 5.1875 L 11.191406 5.1875 C 11.242188 5.0625 11.289062 4.933594 11.324219 4.804688 L 4.519531 4.804688 C 4.558594 4.933594 4.601562 5.0625 4.652344 5.1875 Z M 4.652344 5.1875 "/>
<path style=" stroke:none;fill-rule:nonzero;fill:rgb(60%,40%,0%);fill-opacity:1;" d="M 11.085938 5.417969 L 4.734375 5.417969 C 4.796875 5.554688 4.871094 5.679688 4.953125 5.804688 L 10.871094 5.804688 C 10.949219 5.679688 11.023438 5.550781 11.085938 5.417969 Z M 11.085938 5.417969 "/>
<path style=" stroke:none;fill-rule:nonzero;fill:rgb(60%,40%,0%);fill-opacity:1;" d="M 5.402344 6.34375 L 10.425781 6.34375 C 10.523438 6.246094 10.609375 6.144531 10.691406 6.035156 L 5.136719 6.035156 C 5.230469 6.140625 5.3125 6.246094 5.402344 6.34375 Z M 5.402344 6.34375 "/>
<path style=" stroke:none;fill-rule:nonzero;fill:rgb(60%,40%,0%);fill-opacity:1;" d="M 5.945312 6.804688 L 9.894531 6.804688 C 10 6.730469 10.101562 6.652344 10.195312 6.570312 L 5.648438 6.570312 C 5.742188 6.652344 5.84375 6.730469 5.945312 6.804688 Z M 5.945312 6.804688 "/>
<path style=" stroke:none;fill-rule:nonzero;fill:rgb(60%,40%,0%);fill-opacity:1;" d="M 6.496094 7.113281 C 6.945312 7.316406 7.429688 7.421875 7.921875 7.421875 C 8.414062 7.421875 8.902344 7.316406 9.355469 7.113281 Z M 6.496094 7.113281 "/>
<path style=" stroke:none;fill-rule:nonzero;fill:rgb(0%,20%,40%);fill-opacity:1;" d="M 14.699219 7.589844 L 9.355469 7.589844 C 9.035156 7.597656 8.726562 7.691406 8.457031 7.863281 C 8.226562 8.058594 8.046875 8.308594 7.925781 8.589844 C 7.808594 8.300781 7.625 8.042969 7.390625 7.839844 C 7.125 7.667969 6.816406 7.574219 6.5 7.566406 L 1.148438 7.566406 L 0.0820312 9.308594 L 4.984375 9.308594 C 5.058594 9.304688 5.136719 9.304688 5.214844 9.308594 C 5.453125 9.359375 5.679688 9.460938 5.878906 9.605469 C 6.085938 9.746094 6.28125 9.910156 6.453125 10.09375 L 6.609375 10.292969 L 9.273438 10.292969 C 9.273438 10.292969 9.386719 10.140625 9.433594 10.09375 C 9.605469 9.90625 9.800781 9.742188 10.011719 9.605469 C 10.210938 9.460938 10.4375 9.359375 10.675781 9.308594 C 10.753906 9.304688 10.828125 9.304688 10.90625 9.308594 L 15.808594 9.308594 Z M 14.699219 7.589844 "/>
<path style=" stroke:none;fill-rule:nonzero;fill:rgb(0%,20%,40%);fill-opacity:1;" d="M 0.613281 9.839844 L 0.613281 18.035156 C 0.613281 18.121094 0.613281 18.203125 0.613281 18.273438 C 0.714844 19.105469 1.007812 19.902344 1.472656 20.597656 C 2.050781 21.484375 2.800781 22.25 3.679688 22.84375 L 4.371094 21.796875 C 3.707031 21.394531 3.148438 20.84375 2.730469 20.183594 C 2.585938 19.976562 2.457031 19.761719 2.34375 19.535156 C 2.257812 19.363281 2.183594 19.183594 2.117188 19.003906 C 2.078125 18.875 2.042969 18.765625 2.019531 18.660156 C 1.988281 18.527344 1.96875 18.390625 1.957031 18.253906 C 1.957031 18.207031 1.957031 18.003906 1.957031 18.003906 L 1.957031 9.863281 Z M 0.613281 9.839844 "/>
<path style=" stroke:none;fill-rule:nonzero;fill:rgb(0%,20%,40%);fill-opacity:1;" d="M 2.65625 9.839844 L 2.65625 17.980469 C 2.652344 18.003906 2.652344 18.023438 2.65625 18.042969 C 2.652344 18.09375 2.652344 18.140625 2.65625 18.191406 C 2.65625 18.191406 2.65625 18.261719 2.65625 18.277344 C 2.679688 18.414062 2.714844 18.550781 2.757812 18.683594 C 2.882812 19.03125 3.050781 19.363281 3.25 19.671875 C 3.613281 20.265625 4.117188 20.753906 4.71875 21.097656 L 5.421875 20.050781 C 5.246094 19.941406 5.078125 19.808594 4.929688 19.660156 C 4.714844 19.457031 4.519531 19.234375 4.351562 18.988281 C 4.199219 18.75 4.082031 18.492188 4 18.21875 C 3.960938 18.085938 3.9375 17.945312 3.9375 17.804688 L 3.9375 9.839844 Z M 2.65625 9.839844 "/>
<path style=" stroke:none;fill-rule:nonzero;fill:rgb(0%,20%,40%);fill-opacity:1;" d="M 15.238281 9.839844 L 15.238281 18.035156 C 15.242188 18.113281 15.242188 18.191406 15.238281 18.273438 C 15.140625 19.105469 14.847656 19.902344 14.382812 20.597656 C 13.800781 21.496094 13.042969 22.265625 12.160156 22.867188 L 11.484375 21.796875 C 12.148438 21.394531 12.707031 20.84375 13.125 20.183594 C 13.269531 19.980469 13.398438 19.765625 13.515625 19.546875 C 13.597656 19.371094 13.671875 19.195312 13.734375 19.015625 C 13.777344 18.886719 13.8125 18.777344 13.839844 18.671875 C 13.875 18.539062 13.890625 18.402344 13.898438 18.265625 C 13.898438 18.21875 13.898438 18.015625 13.898438 18.015625 L 13.898438 9.875 Z M 15.238281 9.839844 "/>
<path style=" stroke:none;fill-rule:nonzero;fill:rgb(0%,20%,40%);fill-opacity:1;" d="M 13.199219 9.839844 L 13.199219 17.980469 C 13.199219 18.003906 13.199219 18.023438 13.199219 18.042969 C 13.199219 18.089844 13.199219 18.148438 13.199219 18.191406 C 13.199219 18.230469 13.199219 18.261719 13.199219 18.277344 C 13.175781 18.417969 13.136719 18.550781 13.089844 18.683594 C 12.964844 19.03125 12.800781 19.363281 12.605469 19.671875 C 12.242188 20.265625 11.734375 20.753906 11.132812 21.097656 L 10.425781 20.050781 C 10.605469 19.941406 10.769531 19.808594 10.917969 19.660156 C 11.132812 19.457031 11.328125 19.230469 11.496094 18.988281 C 11.648438 18.75 11.769531 18.492188 11.847656 18.21875 C 11.886719 18.085938 11.90625 17.945312 11.910156 17.804688 L 11.910156 9.839844 Z M 13.199219 9.839844 "/>
<path style=" stroke:none;fill-rule:nonzero;fill:rgb(10.980392%,21.176471%,39.215686%);fill-opacity:1;" d="M 21.59375 24.476562 L 20.878906 24.476562 L 20.878906 19.347656 L 19.515625 19.347656 L 19.515625 18.691406 L 22.980469 18.691406 L 22.980469 19.347656 L 21.59375 19.347656 Z M 21.59375 24.476562 "/>
<path style=" stroke:none;fill-rule:nonzero;fill:rgb(10.980392%,21.176471%,39.215686%);fill-opacity:1;" d="M 23.597656 18.691406 L 26.6875 18.691406 L 26.6875 19.347656 L 24.3125 19.347656 L 24.3125 20.96875 L 26.625 20.96875 L 26.625 21.628906 L 24.3125 21.628906 L 24.3125 23.8125 L 26.6875 23.8125 L 26.6875 24.476562 L 23.597656 24.476562 Z M 23.597656 18.691406 "/>
<path style=" stroke:none;fill-rule:nonzero;fill:rgb(10.980392%,21.176471%,39.215686%);fill-opacity:1;" d="M 31.832031 19.796875 C 31.410156 19.425781 30.871094 19.21875 30.3125 19.214844 C 29.261719 19.191406 28.324219 19.878906 28.023438 20.890625 C 27.71875 21.90625 28.121094 23 29.007812 23.566406 C 29.894531 24.136719 31.050781 24.039062 31.832031 23.332031 L 31.832031 24.179688 C 31.371094 24.445312 30.851562 24.582031 30.320312 24.585938 C 29.53125 24.589844 28.769531 24.28125 28.210938 23.71875 C 27.648438 23.160156 27.332031 22.398438 27.328125 21.605469 C 27.324219 20.789062 27.648438 20.007812 28.222656 19.433594 C 28.796875 18.863281 29.574219 18.546875 30.382812 18.558594 C 30.890625 18.550781 31.394531 18.6875 31.832031 18.945312 Z M 31.832031 19.796875 "/>
<path style=" stroke:none;fill-rule:nonzero;fill:rgb(10.980392%,21.176471%,39.215686%);fill-opacity:1;" d="M 36.152344 21.023438 L 36.152344 18.695312 L 36.867188 18.695312 L 36.867188 24.511719 L 36.152344 24.511719 L 36.152344 21.695312 L 33.414062 21.695312 L 33.414062 24.476562 L 32.699219 24.476562 L 32.699219 18.660156 L 33.414062 18.660156 L 33.414062 20.988281 Z M 36.152344 21.023438 "/>
<path style=" stroke:none;fill-rule:nonzero;fill:rgb(10.980392%,21.176471%,39.215686%);fill-opacity:1;" d="M 37.914062 18.410156 L 42.226562 22.957031 L 42.226562 18.691406 L 42.941406 18.691406 L 42.941406 24.703125 L 38.628906 20.148438 L 38.628906 24.464844 L 37.914062 24.464844 Z M 37.914062 18.410156 "/>
<path style=" stroke:none;fill-rule:nonzero;fill:rgb(10.980392%,21.176471%,39.215686%);fill-opacity:1;" d="M 49.65625 21.582031 C 49.585938 23.203125 48.257812 24.484375 46.644531 24.484375 C 45.03125 24.484375 43.703125 23.203125 43.632812 21.582031 C 43.703125 19.957031 45.03125 18.679688 46.644531 18.679688 C 48.257812 18.679688 49.585938 19.957031 49.65625 21.582031 Z M 48.941406 21.582031 C 48.941406 20.296875 47.90625 19.253906 46.632812 19.253906 C 45.355469 19.253906 44.320312 20.296875 44.320312 21.582031 C 44.320312 22.867188 45.355469 23.90625 46.632812 23.90625 C 47.90625 23.90625 48.941406 22.867188 48.941406 21.582031 Z M 48.941406 21.582031 "/>
<path style=" stroke:none;fill-rule:nonzero;fill:rgb(10.980392%,21.176471%,39.215686%);fill-opacity:1;" d="M 51.140625 23.8125 L 52.871094 23.8125 L 52.871094 24.476562 L 50.425781 24.476562 L 50.425781 18.660156 L 51.140625 18.660156 Z M 51.140625 23.8125 "/>
<path style=" stroke:none;fill-rule:nonzero;fill:rgb(10.980392%,21.176471%,39.215686%);fill-opacity:1;" d="M 59.050781 21.582031 C 58.980469 23.203125 57.652344 24.484375 56.039062 24.484375 C 54.425781 24.484375 53.097656 23.203125 53.027344 21.582031 C 53.097656 19.957031 54.425781 18.679688 56.039062 18.679688 C 57.652344 18.679688 58.980469 19.957031 59.050781 21.582031 Z M 58.335938 21.582031 C 58.335938 20.296875 57.300781 19.253906 56.027344 19.253906 C 54.75 19.253906 53.714844 20.296875 53.714844 21.582031 C 53.714844 22.867188 54.75 23.90625 56.027344 23.90625 C 57.300781 23.90625 58.335938 22.867188 58.335938 21.582031 Z M 58.335938 21.582031 "/>
<path style=" stroke:none;fill-rule:nonzero;fill:rgb(10.980392%,21.176471%,39.215686%);fill-opacity:1;" d="M 65.054688 21.558594 L 65.054688 21.796875 C 65.089844 22.539062 64.816406 23.261719 64.300781 23.792969 C 63.785156 24.328125 63.074219 24.621094 62.335938 24.605469 C 60.679688 24.589844 59.351562 23.222656 59.367188 21.558594 C 59.382812 19.890625 60.738281 18.550781 62.394531 18.566406 C 63.289062 18.574219 64.136719 18.984375 64.703125 19.683594 L 64.203125 20.171875 C 63.621094 19.359375 62.578125 19.023438 61.636719 19.347656 C 60.695312 19.667969 60.070312 20.574219 60.101562 21.574219 C 60.101562 22.859375 61.117188 23.910156 62.394531 23.941406 C 63.367188 23.917969 64.171875 23.171875 64.277344 22.195312 L 62.785156 22.195312 L 62.785156 21.558594 Z M 65.054688 21.558594 "/>
<path style=" stroke:none;fill-rule:nonzero;fill:rgb(10.980392%,21.176471%,39.215686%);fill-opacity:1;" d="M 65.246094 18.691406 L 66.074219 18.691406 L 67.480469 21.160156 L 68.890625 18.691406 L 69.714844 18.691406 L 67.839844 21.957031 L 67.839844 24.476562 L 67.125 24.476562 L 67.125 21.957031 Z M 65.246094 18.691406 "/>
<path style=" stroke:none;fill-rule:nonzero;fill:rgb(10.980392%,21.176471%,39.215686%);fill-opacity:1;" d="M 21.105469 6.058594 L 20.386719 6.058594 L 20.386719 0.9375 L 19.023438 0.9375 L 19.023438 0.277344 L 22.488281 0.277344 L 22.488281 0.9375 L 21.105469 0.9375 Z M 21.105469 6.058594 "/>
<path style=" stroke:none;fill-rule:nonzero;fill:rgb(10.980392%,21.176471%,39.215686%);fill-opacity:1;" d="M 26.496094 2.605469 L 26.496094 0.277344 L 27.21875 0.277344 L 27.21875 6.09375 L 26.496094 6.09375 L 26.496094 3.28125 L 23.765625 3.28125 L 23.765625 6.058594 L 23.050781 6.058594 L 23.050781 0.277344 L 23.765625 0.277344 L 23.765625 2.605469 Z M 26.496094 2.605469 "/>
<path style=" stroke:none;fill-rule:nonzero;fill:rgb(10.980392%,21.176471%,39.215686%);fill-opacity:1;" d="M 28.328125 0.277344 L 31.417969 0.277344 L 31.417969 0.9375 L 29.042969 0.9375 L 29.042969 2.554688 L 31.351562 2.554688 L 31.351562 3.214844 L 29.042969 3.214844 L 29.042969 5.402344 L 31.417969 5.402344 L 31.417969 6.058594 L 28.328125 6.058594 Z M 28.328125 0.277344 "/>
<path style=" stroke:none;fill-rule:nonzero;fill:rgb(10.980392%,21.176471%,39.215686%);fill-opacity:1;" d="M 38.046875 2.605469 L 38.046875 0.277344 L 38.761719 0.277344 L 38.761719 6.09375 L 38.046875 6.09375 L 38.046875 3.28125 L 35.308594 3.28125 L 35.308594 6.058594 L 34.59375 6.058594 L 34.59375 0.277344 L 35.308594 0.277344 L 35.308594 2.605469 Z M 38.046875 2.605469 "/>
<path style=" stroke:none;fill-rule:nonzero;fill:rgb(10.980392%,21.176471%,39.215686%);fill-opacity:1;" d="M 45.488281 3.1875 C 45.488281 4.859375 44.140625 6.214844 42.480469 6.214844 C 40.816406 6.214844 39.472656 4.859375 39.472656 3.1875 C 39.472656 1.511719 40.816406 0.15625 42.480469 0.15625 C 44.140625 0.15625 45.488281 1.511719 45.488281 3.1875 Z M 44.773438 3.1875 C 44.882812 2.292969 44.46875 1.417969 43.714844 0.9375 C 42.960938 0.457031 42 0.457031 41.242188 0.9375 C 40.488281 1.417969 40.078125 2.292969 40.1875 3.1875 C 40.078125 4.078125 40.488281 4.957031 41.242188 5.4375 C 42 5.917969 42.960938 5.917969 43.714844 5.4375 C 44.46875 4.957031 44.882812 4.078125 44.773438 3.1875 Z M 44.773438 3.1875 "/>
<path style=" stroke:none;fill-rule:nonzero;fill:rgb(10.980392%,21.176471%,39.215686%);fill-opacity:1;" d="M 46.191406 0 L 50.503906 4.546875 L 50.503906 0.277344 L 51.222656 0.277344 L 51.222656 6.296875 L 46.910156 1.75 L 46.910156 6.058594 L 46.191406 6.058594 Z M 46.191406 0 "/>
<path style=" stroke:none;fill-rule:nonzero;fill:rgb(10.980392%,21.176471%,39.215686%);fill-opacity:1;" d="M 57.554688 3.144531 L 57.554688 3.371094 C 57.589844 4.117188 57.316406 4.839844 56.800781 5.371094 C 56.285156 5.902344 55.574219 6.195312 54.835938 6.183594 C 53.234375 6.097656 51.980469 4.757812 51.996094 3.140625 C 52.007812 1.523438 53.285156 0.207031 54.886719 0.152344 C 55.785156 0.160156 56.632812 0.570312 57.199219 1.273438 L 56.695312 1.757812 C 56.097656 0.984375 55.078125 0.683594 54.160156 1.007812 C 53.246094 1.332031 52.636719 2.207031 52.648438 3.1875 C 52.664062 4.4375 53.648438 5.457031 54.886719 5.511719 C 55.863281 5.496094 56.671875 4.746094 56.769531 3.769531 L 55.273438 3.769531 L 55.273438 3.144531 Z M 57.554688 3.144531 "/>
<path style=" stroke:none;fill-rule:nonzero;fill:rgb(10.980392%,21.176471%,39.215686%);fill-opacity:1;" d="M 63.773438 0.277344 L 64.703125 0.277344 L 62.121094 2.882812 L 64.75 6.066406 L 63.78125 6.066406 L 61.613281 3.371094 L 61.324219 3.652344 L 61.324219 6.066406 L 60.609375 6.066406 L 60.609375 0.277344 L 61.324219 0.277344 L 61.324219 2.785156 Z M 63.773438 0.277344 "/>
<path style=" stroke:none;fill-rule:nonzero;fill:rgb(10.980392%,21.176471%,39.215686%);fill-opacity:1;" d="M 70.882812 3.1875 C 70.8125 4.808594 69.484375 6.089844 67.871094 6.089844 C 66.257812 6.089844 64.929688 4.808594 64.859375 3.1875 C 64.929688 1.5625 66.257812 0.285156 67.871094 0.285156 C 69.484375 0.285156 70.8125 1.5625 70.882812 3.1875 Z M 70.167969 3.1875 C 70.265625 2.300781 69.851562 1.433594 69.097656 0.957031 C 68.347656 0.480469 67.394531 0.480469 66.640625 0.957031 C 65.890625 1.433594 65.476562 2.300781 65.574219 3.1875 C 65.476562 4.074219 65.890625 4.941406 66.640625 5.417969 C 67.394531 5.890625 68.347656 5.890625 69.097656 5.417969 C 69.851562 4.941406 70.265625 4.074219 70.167969 3.1875 Z M 70.167969 3.1875 "/>
<path style=" stroke:none;fill-rule:nonzero;fill:rgb(10.980392%,21.176471%,39.215686%);fill-opacity:1;" d="M 71.582031 0 L 75.894531 4.546875 L 75.894531 0.277344 L 76.609375 0.277344 L 76.609375 6.296875 L 72.296875 1.75 L 72.296875 6.058594 L 71.582031 6.058594 Z M 71.582031 0 "/>
<path style=" stroke:none;fill-rule:nonzero;fill:rgb(10.980392%,21.176471%,39.215686%);fill-opacity:1;" d="M 82.945312 3.144531 L 82.945312 3.371094 C 82.976562 4.117188 82.703125 4.839844 82.1875 5.371094 C 81.675781 5.902344 80.960938 6.195312 80.222656 6.183594 C 78.839844 6.144531 77.65625 5.15625 77.371094 3.789062 C 77.082031 2.421875 77.765625 1.035156 79.019531 0.4375 C 80.273438 -0.160156 81.769531 0.183594 82.636719 1.273438 L 82.136719 1.757812 C 81.550781 0.9375 80.503906 0.601562 79.554688 0.933594 C 78.609375 1.261719 77.992188 2.179688 78.035156 3.1875 C 78.058594 4.441406 79.046875 5.464844 80.292969 5.511719 C 81.269531 5.492188 82.074219 4.746094 82.175781 3.769531 L 80.691406 3.769531 L 80.691406 3.144531 Z M 82.945312 3.144531 "/>
<path style=" stroke:none;fill-rule:nonzero;fill:rgb(10.980392%,21.176471%,39.215686%);fill-opacity:1;" d="M 20.175781 9.480469 L 20.175781 12.898438 C 20.175781 13.839844 20.457031 14.71875 21.558594 14.71875 C 22.664062 14.71875 22.945312 13.839844 22.945312 12.898438 L 22.945312 9.480469 L 23.667969 9.480469 L 23.667969 13.144531 C 23.707031 13.925781 23.316406 14.667969 22.648438 15.074219 C 21.980469 15.476562 21.144531 15.476562 20.476562 15.074219 C 19.808594 14.667969 19.417969 13.925781 19.457031 13.144531 L 19.457031 9.480469 Z M 20.175781 9.480469 "/>
<path style=" stroke:none;fill-rule:nonzero;fill:rgb(10.980392%,21.176471%,39.215686%);fill-opacity:1;" d="M 24.769531 9.207031 L 29.082031 13.757812 L 29.082031 9.480469 L 29.800781 9.480469 L 29.800781 15.507812 L 25.488281 10.957031 L 25.488281 15.269531 L 24.769531 15.269531 Z M 24.769531 9.207031 "/>
<path style=" stroke:none;fill-rule:nonzero;fill:rgb(10.980392%,21.176471%,39.215686%);fill-opacity:1;" d="M 31.914062 15.269531 L 31.214844 15.269531 L 31.214844 9.457031 L 31.9375 9.457031 Z M 31.914062 15.269531 "/>
<path style=" stroke:none;fill-rule:nonzero;fill:rgb(10.980392%,21.176471%,39.215686%);fill-opacity:1;" d="M 34.957031 13.765625 L 36.6875 9.480469 L 37.449219 9.480469 L 34.957031 15.574219 L 32.457031 9.480469 L 33.242188 9.480469 Z M 34.957031 13.765625 "/>
<path style=" stroke:none;fill-rule:nonzero;fill:rgb(10.980392%,21.176471%,39.215686%);fill-opacity:1;" d="M 38.015625 9.480469 L 41.097656 9.480469 L 41.097656 10.164062 L 38.71875 10.164062 L 38.71875 11.78125 L 41.03125 11.78125 L 41.03125 12.445312 L 38.71875 12.445312 L 38.71875 14.632812 L 41.089844 14.632812 L 41.089844 15.292969 L 38.015625 15.292969 Z M 38.015625 9.480469 "/>
<path style=" stroke:none;fill-rule:nonzero;fill:rgb(10.980392%,21.176471%,39.215686%);fill-opacity:1;" d="M 45.648438 15.269531 L 44.765625 15.269531 L 43.074219 12.824219 L 42.761719 12.824219 L 42.761719 15.269531 L 42.058594 15.269531 L 42.058594 9.457031 L 42.929688 9.457031 C 43.449219 9.414062 43.972656 9.507812 44.449219 9.730469 C 45.019531 10.097656 45.300781 10.78125 45.164062 11.449219 C 45.023438 12.113281 44.488281 12.625 43.820312 12.730469 Z M 42.761719 12.222656 L 42.988281 12.222656 C 43.722656 12.222656 44.511719 12.085938 44.511719 11.164062 C 44.511719 10.246094 43.65625 10.125 42.953125 10.125 L 42.761719 10.125 Z M 42.761719 12.222656 "/>
<path style=" stroke:none;fill-rule:nonzero;fill:rgb(10.980392%,21.176471%,39.215686%);fill-opacity:1;" d="M 48.933594 10.578125 C 48.757812 10.230469 48.398438 10.015625 48.011719 10.03125 C 47.523438 10 47.097656 10.367188 47.050781 10.855469 C 47.050781 11.3125 47.496094 11.542969 47.855469 11.683594 L 48.265625 11.847656 C 49.078125 12.164062 49.691406 12.621094 49.691406 13.589844 C 49.679688 14.554688 48.925781 15.34375 47.96875 15.390625 C 47.011719 15.4375 46.183594 14.730469 46.078125 13.769531 L 46.804688 13.621094 C 46.78125 14.03125 46.988281 14.421875 47.339844 14.628906 C 47.691406 14.839844 48.128906 14.832031 48.472656 14.613281 C 48.820312 14.394531 49.015625 14 48.980469 13.589844 C 48.980469 12.96875 48.484375 12.699219 47.988281 12.492188 L 47.589844 12.324219 C 46.9375 12.039062 46.34375 11.660156 46.34375 10.855469 C 46.363281 10.429688 46.554688 10.027344 46.875 9.746094 C 47.191406 9.464844 47.609375 9.324219 48.035156 9.355469 C 48.652344 9.34375 49.222656 9.683594 49.511719 10.234375 Z M 48.933594 10.578125 "/>
<path style=" stroke:none;fill-rule:nonzero;fill:rgb(10.980392%,21.176471%,39.215686%);fill-opacity:1;" d="M 51.347656 15.269531 L 50.632812 15.269531 L 50.632812 9.457031 L 51.347656 9.457031 Z M 51.347656 15.269531 "/>
<path style=" stroke:none;fill-rule:nonzero;fill:rgb(10.980392%,21.176471%,39.215686%);fill-opacity:1;" d="M 54.207031 15.269531 L 53.492188 15.269531 L 53.492188 10.164062 L 52.128906 10.164062 L 52.128906 9.480469 L 55.59375 9.480469 L 55.59375 10.164062 L 54.207031 10.164062 Z M 54.207031 15.269531 "/>
<path style=" stroke:none;fill-rule:nonzero;fill:rgb(10.980392%,21.176471%,39.215686%);fill-opacity:1;" d="M 55.828125 9.480469 L 56.65625 9.480469 L 58.0625 11.949219 L 59.472656 9.480469 L 60.296875 9.480469 L 58.421875 12.753906 L 58.421875 15.269531 L 57.707031 15.269531 L 57.707031 12.753906 Z M 55.828125 9.480469 "/>
<path style=" stroke:none;fill-rule:nonzero;fill:rgb(10.980392%,21.176471%,39.215686%);fill-opacity:1;" d="M 68.902344 12.375 C 68.832031 14 67.503906 15.277344 65.890625 15.277344 C 64.277344 15.277344 62.949219 14 62.878906 12.375 C 62.949219 10.75 64.277344 9.472656 65.890625 9.472656 C 67.503906 9.472656 68.832031 10.75 68.902344 12.375 Z M 68.1875 12.375 C 68.292969 11.480469 67.882812 10.605469 67.128906 10.125 C 66.375 9.644531 65.414062 9.644531 64.65625 10.125 C 63.902344 10.605469 63.492188 11.480469 63.601562 12.375 C 63.492188 13.265625 63.902344 14.144531 64.65625 14.625 C 65.414062 15.105469 66.375 15.105469 67.128906 14.625 C 67.882812 14.144531 68.292969 13.265625 68.1875 12.375 Z M 68.1875 12.375 "/>
<path style=" stroke:none;fill-rule:nonzero;fill:rgb(10.980392%,21.176471%,39.215686%);fill-opacity:1;" d="M 70.476562 10.164062 L 70.476562 11.792969 L 72.46875 11.792969 L 72.46875 12.449219 L 70.476562 12.449219 L 70.476562 15.292969 L 69.761719 15.292969 L 69.761719 9.480469 L 72.539062 9.480469 L 72.539062 10.164062 Z M 70.476562 10.164062 "/>
<path style=" stroke:none;fill-rule:nonzero;fill:rgb(10.980392%,21.176471%,39.215686%);fill-opacity:1;" d="M 78.636719 10.578125 C 78.464844 10.230469 78.105469 10.015625 77.71875 10.03125 C 77.230469 10 76.804688 10.367188 76.753906 10.855469 C 76.753906 11.3125 77.199219 11.542969 77.558594 11.683594 L 77.96875 11.847656 C 78.78125 12.164062 79.394531 12.621094 79.394531 13.589844 C 79.398438 14.078125 79.203125 14.546875 78.859375 14.886719 C 78.511719 15.226562 78.042969 15.410156 77.558594 15.394531 C 76.640625 15.390625 75.871094 14.691406 75.777344 13.769531 L 76.507812 13.621094 C 76.515625 14.222656 77.007812 14.707031 77.605469 14.699219 C 78.207031 14.691406 78.683594 14.195312 78.675781 13.589844 C 78.675781 12.96875 78.179688 12.699219 77.683594 12.492188 L 77.292969 12.324219 C 76.632812 12.039062 76.039062 11.660156 76.039062 10.855469 C 76.058594 10.429688 76.25 10.027344 76.570312 9.746094 C 76.886719 9.464844 77.308594 9.324219 77.730469 9.355469 C 78.347656 9.34375 78.921875 9.683594 79.207031 10.234375 Z M 78.636719 10.578125 "/>
<path style=" stroke:none;fill-rule:nonzero;fill:rgb(10.980392%,21.176471%,39.215686%);fill-opacity:1;" d="M 84.59375 10.589844 C 83.652344 9.742188 82.207031 9.796875 81.332031 10.714844 C 80.453125 11.632812 80.453125 13.085938 81.332031 14.007812 C 82.207031 14.925781 83.652344 14.980469 84.59375 14.132812 L 84.59375 14.984375 C 84.136719 15.25 83.617188 15.390625 83.089844 15.394531 C 82.296875 15.398438 81.539062 15.085938 80.976562 14.523438 C 80.414062 13.964844 80.097656 13.199219 80.097656 12.402344 C 80.097656 11.585938 80.421875 10.800781 81.003906 10.226562 C 81.582031 9.652344 82.367188 9.339844 83.179688 9.355469 C 83.6875 9.351562 84.191406 9.488281 84.625 9.753906 Z M 84.59375 10.589844 "/>
<path style=" stroke:none;fill-rule:nonzero;fill:rgb(10.980392%,21.176471%,39.215686%);fill-opacity:1;" d="M 86.488281 15.269531 L 85.773438 15.269531 L 85.773438 9.457031 L 86.488281 9.457031 Z M 86.488281 15.269531 "/>
<path style=" stroke:none;fill-rule:nonzero;fill:rgb(10.980392%,21.176471%,39.215686%);fill-opacity:1;" d="M 87.902344 9.480469 L 90.992188 9.480469 L 90.992188 10.164062 L 88.621094 10.164062 L 88.621094 11.78125 L 90.929688 11.78125 L 90.929688 12.445312 L 88.621094 12.445312 L 88.621094 14.632812 L 90.992188 14.632812 L 90.992188 15.292969 L 87.902344 15.292969 Z M 87.902344 9.480469 "/>
<path style=" stroke:none;fill-rule:nonzero;fill:rgb(10.980392%,21.176471%,39.215686%);fill-opacity:1;" d="M 92.148438 9.207031 L 96.460938 13.757812 L 96.460938 9.480469 L 97.175781 9.480469 L 97.175781 15.507812 L 92.863281 10.957031 L 92.863281 15.269531 L 92.148438 15.269531 Z M 92.148438 9.207031 "/>
<path style=" stroke:none;fill-rule:nonzero;fill:rgb(10.980392%,21.176471%,39.215686%);fill-opacity:1;" d="M 102.511719 10.589844 C 101.566406 9.742188 100.125 9.796875 99.246094 10.714844 C 98.371094 11.632812 98.371094 13.085938 99.246094 14.007812 C 100.125 14.925781 101.566406 14.980469 102.511719 14.132812 L 102.511719 14.984375 C 102.054688 15.25 101.535156 15.390625 101.003906 15.394531 C 100.214844 15.398438 99.453125 15.085938 98.890625 14.523438 C 98.328125 13.964844 98.011719 13.199219 98.007812 12.402344 C 98.007812 11.589844 98.332031 10.808594 98.90625 10.238281 C 99.480469 9.664062 100.261719 9.347656 101.070312 9.355469 C 101.578125 9.351562 102.078125 9.488281 102.511719 9.753906 Z M 102.511719 10.589844 "/>
<path style=" stroke:none;fill-rule:nonzero;fill:rgb(10.980392%,21.176471%,39.215686%);fill-opacity:1;" d="M 103.550781 9.480469 L 106.636719 9.480469 L 106.636719 10.164062 L 104.269531 10.164062 L 104.269531 11.78125 L 106.578125 11.78125 L 106.578125 12.445312 L 104.269531 12.445312 L 104.269531 14.632812 L 106.636719 14.632812 L 106.636719 15.292969 L 103.550781 15.292969 Z M 103.550781 9.480469 "/>
<path style=" stroke:none;fill-rule:nonzero;fill:rgb(10.980392%,21.176471%,39.215686%);fill-opacity:1;" d="M 111.394531 13.839844 L 110.742188 15.289062 L 109.96875 15.289062 L 112.710938 9.257812 L 115.457031 15.289062 L 114.683594 15.289062 L 114.03125 13.839844 Z M 112.710938 10.839844 L 111.691406 13.164062 L 113.730469 13.164062 Z M 112.710938 10.839844 "/>
<path style=" stroke:none;fill-rule:nonzero;fill:rgb(10.980392%,21.176471%,39.215686%);fill-opacity:1;" d="M 116.09375 9.230469 L 120.40625 13.777344 L 120.40625 9.503906 L 121.121094 9.503906 L 121.121094 15.527344 L 116.808594 10.980469 L 116.808594 15.289062 L 116.09375 15.289062 Z M 116.09375 9.230469 "/>
<path style=" stroke:none;fill-rule:nonzero;fill:rgb(10.980392%,21.176471%,39.215686%);fill-opacity:1;" d="M 122.21875 9.503906 L 123.410156 9.503906 C 125.171875 9.503906 126.636719 10.4375 126.636719 12.371094 C 126.636719 14.300781 125.203125 15.277344 123.386719 15.277344 L 122.230469 15.277344 Z M 122.941406 14.632812 L 123.1875 14.632812 C 124.65625 14.632812 125.921875 14.078125 125.921875 12.398438 C 125.921875 10.71875 124.65625 10.164062 123.1875 10.164062 L 122.941406 10.164062 Z M 122.941406 14.632812 "/>
<path style=" stroke:none;fill-rule:nonzero;fill:rgb(10.980392%,21.176471%,39.215686%);fill-opacity:1;" d="M 80.351562 21.5625 L 80.351562 21.796875 C 80.386719 22.539062 80.113281 23.265625 79.59375 23.796875 C 79.078125 24.332031 78.367188 24.625 77.625 24.609375 C 75.96875 24.589844 74.640625 23.214844 74.664062 21.546875 C 74.6875 19.875 76.050781 18.539062 77.707031 18.5625 C 78.617188 18.5625 79.476562 18.976562 80.050781 19.683594 L 79.542969 20.171875 C 78.957031 19.363281 77.917969 19.027344 76.976562 19.351562 C 76.03125 19.675781 75.410156 20.578125 75.4375 21.582031 C 75.4375 22.84375 76.417969 23.886719 77.671875 23.949219 C 78.648438 23.929688 79.457031 23.179688 79.5625 22.203125 L 78.070312 22.203125 L 78.070312 21.5625 Z M 80.351562 21.5625 "/>
<path style=" stroke:none;fill-rule:nonzero;fill:rgb(10.980392%,21.176471%,39.215686%);fill-opacity:1;" d="M 81.753906 18.683594 L 81.753906 22.109375 C 81.753906 23.058594 82.039062 23.929688 83.140625 23.929688 C 84.242188 23.929688 84.53125 23.058594 84.53125 22.109375 L 84.53125 18.683594 L 85.246094 18.683594 L 85.246094 22.378906 C 85.304688 23.171875 84.917969 23.933594 84.242188 24.351562 C 83.566406 24.765625 82.714844 24.765625 82.039062 24.351562 C 81.363281 23.933594 80.972656 23.171875 81.03125 22.378906 L 81.03125 18.683594 Z M 81.753906 18.683594 "/>
<path style=" stroke:none;fill-rule:nonzero;fill:rgb(10.980392%,21.176471%,39.215686%);fill-opacity:1;" d="M 87.128906 23.035156 L 86.472656 24.488281 L 85.703125 24.488281 L 88.453125 18.441406 L 91.199219 24.488281 L 90.425781 24.488281 L 89.773438 23.035156 Z M 88.453125 20.050781 L 87.429688 22.378906 L 89.476562 22.378906 Z M 88.453125 20.050781 "/>
<path style=" stroke:none;fill-rule:nonzero;fill:rgb(10.980392%,21.176471%,39.215686%);fill-opacity:1;" d="M 91.679688 18.410156 L 96.003906 22.957031 L 96.003906 18.683594 L 96.722656 18.683594 L 96.722656 24.703125 L 92.417969 20.160156 L 92.417969 24.488281 L 91.699219 24.488281 Z M 91.679688 18.410156 "/>
<path style=" stroke:none;fill-rule:nonzero;fill:rgb(10.980392%,21.176471%,39.215686%);fill-opacity:1;" d="M 103.0625 21.5625 L 103.0625 21.796875 C 103.09375 22.539062 102.820312 23.265625 102.304688 23.796875 C 101.789062 24.332031 101.074219 24.625 100.335938 24.609375 C 98.949219 24.570312 97.769531 23.578125 97.484375 22.210938 C 97.199219 20.84375 97.878906 19.457031 99.132812 18.855469 C 100.382812 18.257812 101.882812 18.597656 102.753906 19.683594 L 102.253906 20.171875 C 101.667969 19.363281 100.625 19.027344 99.683594 19.351562 C 98.742188 19.675781 98.117188 20.578125 98.148438 21.582031 C 98.144531 22.84375 99.128906 23.886719 100.382812 23.949219 C 101.355469 23.925781 102.164062 23.179688 102.269531 22.203125 L 100.78125 22.203125 L 100.78125 21.5625 Z M 103.0625 21.5625 "/>
<path style=" stroke:none;fill-rule:nonzero;fill:rgb(10.980392%,21.176471%,39.215686%);fill-opacity:1;" d="M 107.433594 23.824219 L 107.433594 24.488281 L 103.390625 24.488281 L 106.277344 19.347656 L 103.777344 19.347656 L 103.777344 18.683594 L 107.433594 18.683594 L 104.546875 23.824219 Z M 107.433594 23.824219 "/>
<path style=" stroke:none;fill-rule:nonzero;fill:rgb(10.980392%,21.176471%,39.215686%);fill-opacity:1;" d="M 111.527344 21.023438 L 111.527344 18.695312 L 112.242188 18.695312 L 112.242188 24.511719 L 111.527344 24.511719 L 111.527344 21.703125 L 108.78125 21.703125 L 108.78125 24.488281 L 108.066406 24.488281 L 108.066406 18.671875 L 108.78125 18.671875 L 108.78125 21 Z M 111.527344 21.023438 "/>
<path style=" stroke:none;fill-rule:nonzero;fill:rgb(10.980392%,21.176471%,39.215686%);fill-opacity:1;" d="M 118.980469 21.585938 C 118.910156 23.210938 117.578125 24.496094 115.964844 24.496094 C 114.347656 24.496094 113.015625 23.210938 112.945312 21.585938 C 113.015625 19.960938 114.347656 18.679688 115.964844 18.679688 C 117.578125 18.679688 118.910156 19.960938 118.980469 21.585938 Z M 118.265625 21.585938 C 118.265625 20.300781 117.230469 19.261719 115.953125 19.261719 C 114.679688 19.261719 113.644531 20.300781 113.644531 21.585938 C 113.644531 22.871094 114.679688 23.914062 115.953125 23.914062 C 117.230469 23.914062 118.265625 22.871094 118.265625 21.585938 Z M 118.265625 21.585938 "/>
<path style=" stroke:none;fill-rule:nonzero;fill:rgb(10.980392%,21.176471%,39.215686%);fill-opacity:1;" d="M 120.367188 18.683594 L 120.367188 22.109375 C 120.367188 23.058594 120.648438 23.929688 121.75 23.929688 C 122.855469 23.929688 123.144531 23.058594 123.144531 22.109375 L 123.144531 18.683594 L 123.859375 18.683594 L 123.859375 22.378906 C 123.917969 23.171875 123.53125 23.933594 122.851562 24.351562 C 122.175781 24.765625 121.328125 24.765625 120.648438 24.351562 C 119.972656 23.933594 119.585938 23.171875 119.644531 22.378906 L 119.644531 18.683594 Z M 120.367188 18.683594 "/>
<path style=" stroke:none;fill-rule:nonzero;fill:rgb(10.980392%,21.176471%,39.215686%);fill-opacity:1;" d="M 73.796875 18.15625 C 73.542969 18.625 73.316406 19.109375 73.128906 19.609375 C 72.917969 20.246094 72.808594 20.910156 72.8125 21.582031 C 72.839844 22.785156 73.175781 23.957031 73.785156 24.996094 L 73.265625 24.996094 C 72.898438 24.496094 72.597656 23.945312 72.378906 23.367188 C 71.847656 21.992188 71.949219 20.453125 72.65625 19.160156 C 72.832031 18.808594 73.039062 18.472656 73.273438 18.15625 Z M 73.796875 18.15625 "/>
<path style=" stroke:none;fill-rule:nonzero;fill:rgb(10.980392%,21.176471%,39.215686%);fill-opacity:1;" d="M 126.917969 21.59375 C 126.910156 22.429688 126.703125 23.253906 126.308594 23.992188 C 126.128906 24.34375 125.921875 24.679688 125.691406 24.996094 L 125.164062 24.996094 C 125.421875 24.527344 125.644531 24.039062 125.832031 23.539062 C 126.042969 22.902344 126.152344 22.230469 126.152344 21.558594 C 126.121094 20.355469 125.785156 19.179688 125.175781 18.144531 L 125.695312 18.144531 C 126.066406 18.644531 126.363281 19.195312 126.574219 19.785156 C 126.796875 20.359375 126.914062 20.972656 126.917969 21.59375 Z M 126.917969 21.59375 "/>
</g>
</svg>
